<svg xmlns="http://www.w3.org/2000/svg" viewBox="0 0 900 600" role="img" aria-label="South Korea flag">
  <rect width="900" height="600" fill="#fff"/>
  <g transform="translate(450 300) rotate(-33.69)">
    <path fill="#cd2e3a" d="M0-120a120 120 0 0 1 0 240 60 60 0 0 1 0-120 60 60 0 0 0 0-120z"/>
    <path fill="#0047a0" d="M0 120a120 120 0 0 1 0-240 60 60 0 0 1 0 120 60 60 0 0 0 0 120z"/>
  </g>
  <g fill="#000">
    <g transform="translate(228 134) rotate(-33.69)">
      <rect x="-75" y="-39" width="150" height="18"/>
      <rect x="-75" y="-9" width="150" height="18"/>
      <rect x="-75" y="21" width="150" height="18"/>
    </g>
    <g transform="translate(672 466) rotate(-33.69)">
      <rect x="-75" y="-39" width="150" height="18"/>
      <rect x="-75" y="-9" width="68" height="18"/>
      <rect x="7" y="-9" width="68" height="18"/>
      <rect x="-75" y="21" width="150" height="18"/>
    </g>
    <g transform="translate(672 134) rotate(33.69)">
      <rect x="-75" y="-39" width="68" height="18"/>
      <rect x="7" y="-39" width="68" height="18"/>
      <rect x="-75" y="-9" width="150" height="18"/>
      <rect x="-75" y="21" width="68" height="18"/>
      <rect x="7" y="21" width="68" height="18"/>
    </g>
    <g transform="translate(228 466) rotate(33.69)">
      <rect x="-75" y="-39" width="68" height="18"/>
      <rect x="7" y="-39" width="68" height="18"/>
      <rect x="-75" y="-9" width="68" height="18"/>
      <rect x="7" y="-9" width="68" height="18"/>
      <rect x="-75" y="21" width="68" height="18"/>
      <rect x="7" y="21" width="68" height="18"/>
    </g>
  </g>
</svg>
